
<svg xmlns="http://www.w3.org/2000/svg" xmlns:xlink="http://www.w3.org/1999/xlink" version="1.1"  width="1453" height="595">
<defs id="dmw_defs" >
<svg id="fk_sym" viewBox="0 0 48.665 48.665" style="enable-background:new 0 0 48.665 48.665;" >
<g>
<path d="M40.332,31.592c-2.377,0-4.515,1-6.033,2.598l-17.737-8.686c0.061-0.406,0.103-0.82,0.103-1.246    c0-0.414-0.04-0.818-0.098-1.215l17.711-8.589c1.519,1.609,3.666,2.619,6.054,2.619c4.603,0,8.333-3.731,8.333-8.333    c0-4.603-3.73-8.333-8.333-8.333s-8.333,3.73-8.333,8.333c0,0.414,0.04,0.817,0.098,1.215l-17.709,8.589    c-1.519-1.609-3.666-2.619-6.054-2.619C3.73,15.925,0,19.656,0,24.258c0,4.603,3.73,8.333,8.333,8.333    c2.377,0,4.515-1,6.033-2.596l17.736,8.685c-0.062,0.406-0.104,0.82-0.104,1.245c0,4.604,3.73,8.333,8.333,8.333    s8.333-3.729,8.333-8.333C48.665,35.322,44.935,31.592,40.332,31.592z" fill="#13bf3b"/>
</g>
</svg>
<svg id="pk_sym" viewBox="0 0 480.509 480.509" style="enable-background:new 0 0 480.509 480.509;" >
<g>
<path d="M418.119,331.046c4.094,4.374,7.766,8.186,10.996,11.416c3.237,3.238,6.714,6.376,10.427,9.422   c3.71,3.042,6.427,4.568,8.135,4.568c3.241,0,9.517-4.661,18.843-13.99c9.328-9.321,13.989-15.604,13.989-18.842   c0-1.523-2.714-5.421-8.138-11.704c-5.421-6.276-12.364-13.702-20.838-22.271c-8.473-8.565-16.703-16.744-24.694-24.55   c-8.001-7.81-15.8-15.373-23.417-22.703c-7.611-7.327-11.992-11.56-13.135-12.703c-1.902-1.902-4.093-2.853-6.563-2.853   c-3.237,0-9.521,4.661-18.843,13.988c-9.328,9.322-13.989,15.605-13.989,18.843c0,1.711,1.522,4.421,4.568,8.138   c3.046,3.71,6.188,7.187,9.421,10.424c3.23,3.23,7.047,6.899,11.42,10.992c4.377,4.093,6.848,6.423,7.423,6.995l-27.408,27.404   L254.954,222.268c24.94-33.498,37.408-68.236,37.408-104.211c0-31.024-9.761-56.293-29.263-75.801   c-19.512-19.511-44.778-29.265-75.805-29.265c-30.454,0-60.244,9.042-89.363,27.119c-29.121,18.083-52.727,41.686-70.808,70.808   C9.042,140.038,0,169.828,0,200.28c0,31.029,9.753,56.286,29.265,75.803c19.511,19.517,44.777,29.27,75.801,29.27   c35.976,0,70.71-12.467,104.212-37.407l191.574,191.579c5.332,5.328,11.796,7.994,19.417,7.994c7.991,0,15.704-3.72,23.12-11.14   c7.426-7.426,11.143-15.129,11.143-23.127c0-7.617-2.666-14.092-7.994-19.417l-62.811-62.811l27.405-27.404   C411.699,324.195,414.033,326.666,418.119,331.046z M221.556,161.458c-10.656,10.657-23.601,15.987-38.828,15.987   c-7.996,0-15.896-1.812-23.7-5.43c3.617,7.808,5.426,15.706,5.426,23.7c0,15.229-5.327,28.171-15.987,38.828   c-10.66,10.655-23.606,15.986-38.831,15.986c-15.227,0-28.168-5.325-38.828-15.986c-10.657-10.657-15.987-23.599-15.987-38.828   c0-15.227,5.327-28.171,15.987-38.828C81.464,146.23,94.409,140.9,109.636,140.9c7.992,0,15.893,1.809,23.695,5.424   c-3.616-7.804-5.424-15.706-5.424-23.699c0-15.227,5.327-28.171,15.987-38.828c10.66-10.657,23.604-15.987,38.831-15.987   c15.227,0,28.171,5.327,38.828,15.987c10.657,10.66,15.987,23.601,15.987,38.828C237.539,137.852,232.209,150.797,221.556,161.458z   " fill="#ff8345"/>
</g>
</svg>
<svg id="uk_sym" viewBox="0 0 490 490" style="enable-background:new 0 0 490 490;" >
<g>
	<polygon points="236.99,11.41 0,246.348 236.99,478.678 236.99,350.609 129.864,245 236.99,139.391  " fill="#0064fb"/>
<polygon points="253.01,478.59 490,243.651 253.01,11.322 253.01,139.391 360.136,245 253.01,350.609  " fill="#0064fb"/>
</g>
</svg>
<svg id="link_sym" viewBox="0 0 1000 900" style="enable-background:new 0 0 1000 900;" >
<g>
<path fill="black" d="M660.224 422.656c6.976 16.192-0.512 35.008-16.768 42.048-16.128 6.976-34.944-0.448-41.984-16.768-8.448-19.776-20.736-37.696-36.224-53.248-64.64-64.64-177.344-64.64-241.92 0l-145.216 145.28c-66.688 66.688-66.688 175.232 0 241.984 66.688 66.688 175.104 66.752 241.92 0l92.8-92.864c12.48-12.48 32.768-12.48 45.248 0s12.48 32.768 0 45.248l-92.8 92.864c-91.648 91.648-240.832 91.52-332.416 0-91.712-91.648-91.712-240.832 0-332.48l145.216-145.28c44.352-44.416 103.424-68.864 166.272-68.864s121.792 24.448 166.208 68.864c21.248 21.312 38.016 45.952 49.664 73.216zM891.136 401.344l-145.216 145.216c-88.768 88.832-243.712 88.832-332.416 0-21.312-21.312-38.080-45.952-49.728-73.216-7.040-16.256 0.448-35.072 16.704-42.048 16.064-6.784 35.008 0.512 41.984 16.768 8.512 19.776 20.8 37.696 36.288 53.248 64.64 64.64 177.344 64.64 241.92 0l145.216-145.216c66.688-66.688 66.688-175.232 0-241.984-66.752-66.624-175.168-66.688-241.92 0l-92.8 92.864c-12.48 12.48-32.768 12.48-45.248 0s-12.48-32.768 0-45.248l92.8-92.864c45.824-45.824 105.984-68.736 166.208-68.736s120.448 22.912 166.272 68.736c91.584 91.648 91.584 240.768-0.064 332.48z" />
</g>
</svg>
<clipPath clipPathUnits="userSpaceOnUse" id="clipPath5_0_">
<rect x="0" y="0" width="382" height="208" />
</clipPath>
<clipPath clipPathUnits="userSpaceOnUse" id="clipPath8_0_">
<rect x="0" y="0" width="342" height="259" />
</clipPath>
<clipPath clipPathUnits="userSpaceOnUse" id="clipPath7_0_">
<rect x="0" y="0" width="367" height="138" />
</clipPath>
<clipPath clipPathUnits="userSpaceOnUse" id="clipPath6_0_">
<rect x="0" y="0" width="234" height="123" />
</clipPath>
<clipPath clipPathUnits="userSpaceOnUse" id="clipPath1_0_">
<rect x="0" y="0" width="344" height="140" />
</clipPath>
<clipPath clipPathUnits="userSpaceOnUse" id="clipPath3_0_">
<rect x="0" y="0" width="439" height="182" />
</clipPath>
<clipPath clipPathUnits="userSpaceOnUse" id="clipPath4_0_">
<rect x="0" y="0" width="206" height="91" />
</clipPath>
<clipPath clipPathUnits="userSpaceOnUse" id="clipPath2_0_">
<rect x="0" y="0" width="378" height="175" />
</clipPath>
</defs>
<g stroke-linecap="butt" >
<path stroke="rgb(0,0,0)" fill="none" stroke-opacity="1.0"  stroke-width="1" d="M208 437 L208 455" />
<polygon stroke="rgb(0,0,0)" stroke-dasharray="none" points="208 437 211 443 205 443" fill="rgb(0,0,0)" stroke-width="1" stroke-opacity="1.0"  />
<path stroke-dasharray="none" d="M202.0 449.0 L214.0 449.0 M202.0 443.6000003814697 L214.0 443.6000003814697" fill="white" stroke-width="1" stroke-opacity="1.0" stroke="rgb(0,0,0)" />
</g>
<g stroke-linecap="butt" >
<path stroke="rgb(0,0,0)" fill="none" stroke-opacity="1.0"  stroke-width="1" d="M1295 160 L1295 310" />
<polygon stroke="rgb(0,0,0)" stroke-dasharray="none" points="1295 160 1298 166 1292 166" fill="rgb(0,0,0)" stroke-width="1" stroke-opacity="1.0"  />
<path stroke-dasharray="none" d="M1289.0 304.0 L1301.0 304.0 M1289.0 298.6000003814697 L1301.0 298.6000003814697" fill="white" stroke-width="1" stroke-opacity="1.0" stroke="rgb(0,0,0)" />
</g>
<g stroke-linecap="butt" >
<path stroke="rgb(0,0,0)" fill="none" stroke-opacity="1.0"  stroke-width="1" d="M366 345 L475 345" />
<polygon stroke="rgb(0,0,0)" stroke-dasharray="none" points="366 345 372 342 372 348" fill="rgb(0,0,0)" stroke-width="1" stroke-opacity="1.0"  />
<path stroke-dasharray="none" d="M475.0 351.0 L463.0 345.0 L475.0 339.0 M462.4000005722046 351.0 L462.4000005722046 339.0" fill="white" stroke-width="1" stroke-opacity="1.0" stroke="rgb(0,0,0)" />
</g>
<g stroke-linecap="butt" >
<path stroke="rgb(0,0,0)" fill="none" stroke-opacity="1.0"  stroke-width="1" d="M853 371 L1014 371" />
<polygon stroke="rgb(0,0,0)" stroke-dasharray="none" points="853 371 859 368 859 374" fill="rgb(0,0,0)" stroke-width="1" stroke-opacity="1.0"  />
<path stroke-dasharray="none" d="M1014.0 377.0 L1002.0 371.0 L1014.0 365.0 M1001.4000005722046 377.0 L1001.4000005722046 365.0" fill="white" stroke-width="1" stroke-opacity="1.0" stroke="rgb(0,0,0)" />
</g>
<g stroke-linecap="butt" >
<path stroke="rgb(0,0,0)" fill="none" stroke-opacity="1.0"  stroke-width="1" d="M740 97 L706 97" />
<polygon stroke="rgb(0,0,0)" stroke-dasharray="none" points="740 97 734 100 734 94" fill="rgb(0,0,0)" stroke-width="1" stroke-opacity="1.0"  />
<path stroke-dasharray="none" d="M712.0 91.0 L712.0 103.0 M717.3999996185303 91.0 L717.3999996185303 103.0" fill="white" stroke-width="1" stroke-opacity="1.0" stroke="rgb(0,0,0)" />
</g>
<g stroke-linecap="butt" >
<path stroke="rgb(0,0,0)" fill="none" stroke-opacity="1.0"  stroke-width="1" d="M162 117 L162 178" />
<polygon stroke="rgb(0,0,0)" stroke-dasharray="none" points="162 117 165 123 159 123" fill="rgb(0,0,0)" stroke-width="1" stroke-opacity="1.0"  />
<path stroke-dasharray="none" d="M156.0 172.0 L168.0 172.0 M156.0 166.60000038146973 L168.0 166.60000038146973" fill="white" stroke-width="1" stroke-opacity="1.0" stroke="rgb(0,0,0)" />
</g>
<g stroke-linecap="butt" >
<path stroke="rgb(0,0,0)" fill="none" stroke-opacity="1.0"  stroke-width="1" d="M1178 98 L1122 98" />
<polygon stroke="rgb(0,0,0)" stroke-dasharray="none" points="1178 98 1172 101 1172 95" fill="rgb(0,0,0)" stroke-width="1" stroke-opacity="1.0"  />
<path stroke-dasharray="none" d="M1128.0 92.0 L1128.0 104.0 M1133.3999996185303 92.0 L1133.3999996185303 104.0" fill="white" stroke-width="1" stroke-opacity="1.0" stroke="rgb(0,0,0)" />
</g>
<g  fill="rgb(255,255,180)" stroke="rgb(0,0,255)" fill-opacity="1.0" stroke-opacity="1.0" clip-path="url(#clipPath5_0_)" transform="translate(740,33)" >
<rect x="0" y="0" width="381" height="207" />
<text id="03E8BDC5-DD3999C4CDE5" x="157" y="14" fill="rgb(0,0,255)" font-weight="bold"  fill-opacity="1.0" font-size="10" stroke="none">
PLANO_JAVA
</text>
<line x1="0" y1="18" x2="380" y2="18" fill="none" stroke="rgb(0,0,255)"/>
<text x="16" y="32" fill="rgb(255,0,0)" fill-opacity="1.0" font-size="10" stroke="none">
*
</text>
<text x="2" y="32" fill="rgb(0,0,255)" fill-opacity="1.0" font-size="10" stroke="none">
P
</text>
<text x="26" y="32" fill="rgb(0,0,0)" fill-opacity="1.0" font-size="10" stroke="none">
COD_PLANO
</text>
<text x="214" y="32" fill="rgb(0,128,0)" fill-opacity="1.0" font-size="10" stroke="none">
NUMBER
</text>
<text x="16" y="46" fill="rgb(255,0,0)" fill-opacity="1.0" font-size="10" stroke="none">

</text>
<text x="26" y="46" fill="rgb(0,0,0)" fill-opacity="1.0" font-size="10" stroke="none">
NOME
</text>
<text x="214" y="46" fill="rgb(0,128,0)" fill-opacity="1.0" font-size="10" stroke="none">
VARCHAR2 (60)
</text>
<text x="16" y="60" fill="rgb(255,0,0)" fill-opacity="1.0" font-size="10" stroke="none">

</text>
<text x="26" y="60" fill="rgb(0,0,0)" fill-opacity="1.0" font-size="10" stroke="none">
DESCRICAO
</text>
<text x="214" y="60" fill="rgb(0,128,0)" fill-opacity="1.0" font-size="10" stroke="none">
VARCHAR2 (150)
</text>
<text x="16" y="74" fill="rgb(255,0,0)" fill-opacity="1.0" font-size="10" stroke="none">

</text>
<text x="26" y="74" fill="rgb(0,0,0)" fill-opacity="1.0" font-size="10" stroke="none">
RECURSOS
</text>
<text x="214" y="74" fill="rgb(0,128,0)" fill-opacity="1.0" font-size="10" stroke="none">
VARCHAR2 (150)
</text>
<text x="16" y="88" fill="rgb(255,0,0)" fill-opacity="1.0" font-size="10" stroke="none">

</text>
<text x="26" y="88" fill="rgb(0,0,0)" fill-opacity="1.0" font-size="10" stroke="none">
PRECO
</text>
<text x="214" y="88" fill="rgb(0,128,0)" fill-opacity="1.0" font-size="10" stroke="none">
NUMBER (9,2)
</text>
<text x="16" y="102" fill="rgb(255,0,0)" fill-opacity="1.0" font-size="10" stroke="none">
*
</text>
<text x="2" y="102" fill="rgb(0,0,0)" fill-opacity="1.0" font-size="10" stroke="none">
F
</text>
<text x="26" y="102" fill="rgb(0,0,0)" fill-opacity="1.0" font-size="10" stroke="none">
PRODUTO_JAVA_COD_PRODUTO
</text>
<text x="214" y="102" fill="rgb(0,128,0)" fill-opacity="1.0" font-size="10" stroke="none">
NUMBER
</text>
<text x="16" y="116" fill="rgb(255,0,0)" fill-opacity="1.0" font-size="10" stroke="none">

</text>
<text x="26" y="116" fill="rgb(0,0,0)" fill-opacity="1.0" font-size="10" stroke="none">
COD_PRODUTO
</text>
<text x="214" y="116" fill="rgb(0,128,0)" fill-opacity="1.0" font-size="10" stroke="none">
NUMBER
</text>
<text x="16" y="130" fill="rgb(255,0,0)" fill-opacity="1.0" font-size="10" stroke="none">

</text>
<text x="26" y="130" fill="rgb(0,0,0)" fill-opacity="1.0" font-size="10" stroke="none">
COD_TIPO_PLANO
</text>
<text x="214" y="130" fill="rgb(0,128,0)" fill-opacity="1.0" font-size="10" stroke="none">
NUMBER
</text>
<line x1="0" y1="136" x2="380" y2="136" fill="none" stroke="rgb(0,0,255)"/>
<use xlink:href="#pk_sym" x="4" y="143" width="8" height="8" fill-opacity="1.0"/>
<text x="16" y="150" fill="rgb(0,0,0)" fill-opacity="1.0" font-size="10" stroke="none">
PLANO_JAVA_PK (COD_PLANO)
</text>
<line x1="0" y1="156" x2="380" y2="156" fill="none" stroke="rgb(0,0,255)"/>
<use xlink:href="#fk_sym" x="4" y="163" width="8" height="8" fill-opacity="1.0"/><a xlink:href="#9B7AF73C-64C82F464DFF" >
<text x="16" y="170" fill="rgb(0,0,0)" fill-opacity="1.0" font-size="10" stroke="none">
PLANO_JAVA_PRODUTO_JAVA_FK (PRODUTO_JAVA_COD_PRODUTO)
</text></a>
<line x1="0" y1="176" x2="380" y2="176" fill="none" stroke="rgb(0,0,255)"/>
<text x="2" y="190" fill="rgb(0,0,0)" fill-opacity="1.0" font-size="10" stroke="none">
U
</text>
<text x="16" y="190" fill="rgb(0,0,0)" fill-opacity="1.0" font-size="10" stroke="none">
PLANO_JAVA__IDX (PRODUTO_JAVA_COD_PRODUTO)
</text>
</g>
<g  fill="rgb(255,255,180)" stroke="rgb(0,0,255)" fill-opacity="1.0" stroke-opacity="1.0" clip-path="url(#clipPath8_0_)" transform="translate(24,178)" >
<rect x="0" y="0" width="341" height="258" />
<text id="212AA4E7-4A185840281D" x="131" y="14" fill="rgb(0,0,255)" font-weight="bold"  fill-opacity="1.0" font-size="10" stroke="none">
USUARIO_JAVA
</text>
<line x1="0" y1="18" x2="340" y2="18" fill="none" stroke="rgb(0,0,255)"/>
<text x="16" y="32" fill="rgb(255,0,0)" fill-opacity="1.0" font-size="10" stroke="none">
*
</text>
<text x="2" y="32" fill="rgb(0,0,255)" fill-opacity="1.0" font-size="10" stroke="none">
P
</text>
<text x="26" y="32" fill="rgb(0,0,0)" fill-opacity="1.0" font-size="10" stroke="none">
COD_USUARIO
</text>
<text x="184" y="32" fill="rgb(0,128,0)" fill-opacity="1.0" font-size="10" stroke="none">
NUMBER
</text>
<text x="16" y="46" fill="rgb(255,0,0)" fill-opacity="1.0" font-size="10" stroke="none">

</text>
<text x="26" y="46" fill="rgb(0,0,0)" fill-opacity="1.0" font-size="10" stroke="none">
NOME_USUARIO
</text>
<text x="184" y="46" fill="rgb(0,128,0)" fill-opacity="1.0" font-size="10" stroke="none">
VARCHAR2 (20)
</text>
<text x="16" y="60" fill="rgb(255,0,0)" fill-opacity="1.0" font-size="10" stroke="none">

</text>
<text x="26" y="60" fill="rgb(0,0,0)" fill-opacity="1.0" font-size="10" stroke="none">
SENHA
</text>
<text x="184" y="60" fill="rgb(0,128,0)" fill-opacity="1.0" font-size="10" stroke="none">
VARCHAR2 (20)
</text>
<text x="16" y="74" fill="rgb(255,0,0)" fill-opacity="1.0" font-size="10" stroke="none">

</text>
<text x="26" y="74" fill="rgb(0,0,0)" fill-opacity="1.0" font-size="10" stroke="none">
NOME_COMPLETO
</text>
<text x="184" y="74" fill="rgb(0,128,0)" fill-opacity="1.0" font-size="10" stroke="none">
VARCHAR2 (60)
</text>
<text x="16" y="88" fill="rgb(255,0,0)" fill-opacity="1.0" font-size="10" stroke="none">

</text>
<text x="26" y="88" fill="rgb(0,0,0)" fill-opacity="1.0" font-size="10" stroke="none">
EMAIL
</text>
<text x="184" y="88" fill="rgb(0,128,0)" fill-opacity="1.0" font-size="10" stroke="none">
VARCHAR2 (60)
</text>
<text x="16" y="102" fill="rgb(255,0,0)" fill-opacity="1.0" font-size="10" stroke="none">

</text>
<text x="26" y="102" fill="rgb(0,0,0)" fill-opacity="1.0" font-size="10" stroke="none">
CPF
</text>
<text x="184" y="102" fill="rgb(0,128,0)" fill-opacity="1.0" font-size="10" stroke="none">
NUMBER (11)
</text>
<text x="16" y="116" fill="rgb(255,0,0)" fill-opacity="1.0" font-size="10" stroke="none">

</text>
<text x="26" y="116" fill="rgb(0,0,0)" fill-opacity="1.0" font-size="10" stroke="none">
TELEFONE
</text>
<text x="184" y="116" fill="rgb(0,128,0)" fill-opacity="1.0" font-size="10" stroke="none">
NUMBER (11)
</text>
<text x="16" y="130" fill="rgb(255,0,0)" fill-opacity="1.0" font-size="10" stroke="none">

</text>
<text x="26" y="130" fill="rgb(0,0,0)" fill-opacity="1.0" font-size="10" stroke="none">
PERGUNTA_COMENTARIO
</text>
<text x="184" y="130" fill="rgb(0,128,0)" fill-opacity="1.0" font-size="10" stroke="none">
VARCHAR2 (200)
</text>
<text x="16" y="144" fill="rgb(255,0,0)" fill-opacity="1.0" font-size="10" stroke="none">

</text>
<text x="26" y="144" fill="rgb(0,0,0)" fill-opacity="1.0" font-size="10" stroke="none">
COD_CLIENTE
</text>
<text x="184" y="144" fill="rgb(0,128,0)" fill-opacity="1.0" font-size="10" stroke="none">
NUMBER
</text>
<text x="16" y="158" fill="rgb(255,0,0)" fill-opacity="1.0" font-size="10" stroke="none">

</text>
<text x="26" y="158" fill="rgb(0,0,0)" fill-opacity="1.0" font-size="10" stroke="none">
COD_PERFIL
</text>
<text x="184" y="158" fill="rgb(0,128,0)" fill-opacity="1.0" font-size="10" stroke="none">
NUMBER
</text>
<text x="16" y="172" fill="rgb(255,0,0)" fill-opacity="1.0" font-size="10" stroke="none">
*
</text>
<text x="2" y="172" fill="rgb(0,0,0)" fill-opacity="1.0" font-size="10" stroke="none">
F
</text>
<text x="26" y="172" fill="rgb(0,0,0)" fill-opacity="1.0" font-size="10" stroke="none">
PERFIL_JAVA_COD_PERFIL
</text>
<text x="184" y="172" fill="rgb(0,128,0)" fill-opacity="1.0" font-size="10" stroke="none">
NUMBER
</text>
<text x="16" y="186" fill="rgb(255,0,0)" fill-opacity="1.0" font-size="10" stroke="none">

</text>
<text x="26" y="186" fill="rgb(0,0,0)" fill-opacity="1.0" font-size="10" stroke="none">
COD_CARGO
</text>
<text x="184" y="186" fill="rgb(0,128,0)" fill-opacity="1.0" font-size="10" stroke="none">
NUMBER
</text>
<line x1="0" y1="192" x2="340" y2="192" fill="none" stroke="rgb(0,0,255)"/>
<use xlink:href="#pk_sym" x="4" y="199" width="8" height="8" fill-opacity="1.0"/>
<text x="16" y="206" fill="rgb(0,0,0)" fill-opacity="1.0" font-size="10" stroke="none">
USUARIO_JAVA_PK (COD_USUARIO)
</text>
<line x1="0" y1="212" x2="340" y2="212" fill="none" stroke="rgb(0,0,255)"/>
<use xlink:href="#fk_sym" x="4" y="219" width="8" height="8" fill-opacity="1.0"/><a xlink:href="#D858F72D-A52CE14E8098" >
<text x="16" y="226" fill="rgb(0,0,0)" fill-opacity="1.0" font-size="10" stroke="none">
USUARIO_JAVA_PERFIL_JAVA_FK (PERFIL_JAVA_COD_PERFIL)
</text></a>
<line x1="0" y1="232" x2="340" y2="232" fill="none" stroke="rgb(0,0,255)"/>
<text x="2" y="246" fill="rgb(0,0,0)" fill-opacity="1.0" font-size="10" stroke="none">
U
</text>
<text x="16" y="246" fill="rgb(0,0,0)" fill-opacity="1.0" font-size="10" stroke="none">
USUARIO_JAVA__IDX (PERFIL_JAVA_COD_PERFIL)
</text>
</g>
<g  fill="rgb(255,255,180)" stroke="rgb(0,0,255)" fill-opacity="1.0" stroke-opacity="1.0" clip-path="url(#clipPath7_0_)" transform="translate(339,24)" >
<rect x="0" y="0" width="366" height="137" />
<text id="4F0C7FF3-689214614DA3" x="135" y="14" fill="rgb(0,0,255)" font-weight="bold"  fill-opacity="1.0" font-size="10" stroke="none">
TIPO_PLANO_JAVA
</text>
<line x1="0" y1="18" x2="365" y2="18" fill="none" stroke="rgb(0,0,255)"/>
<text x="16" y="32" fill="rgb(255,0,0)" fill-opacity="1.0" font-size="10" stroke="none">
*
</text>
<text x="2" y="32" fill="rgb(0,0,255)" fill-opacity="1.0" font-size="10" stroke="none">
P
</text>
<text x="26" y="32" fill="rgb(0,0,0)" fill-opacity="1.0" font-size="10" stroke="none">
COD_TIPO_PLANO
</text>
<text x="182" y="32" fill="rgb(0,128,0)" fill-opacity="1.0" font-size="10" stroke="none">
NUMBER
</text>
<text x="16" y="46" fill="rgb(255,0,0)" fill-opacity="1.0" font-size="10" stroke="none">

</text>
<text x="26" y="46" fill="rgb(0,0,0)" fill-opacity="1.0" font-size="10" stroke="none">
TIPO
</text>
<text x="182" y="46" fill="rgb(0,128,0)" fill-opacity="1.0" font-size="10" stroke="none">
VARCHAR2 (30)
</text>
<text x="16" y="60" fill="rgb(255,0,0)" fill-opacity="1.0" font-size="10" stroke="none">
*
</text>
<text x="2" y="60" fill="rgb(0,0,0)" fill-opacity="1.0" font-size="10" stroke="none">
F
</text>
<text x="26" y="60" fill="rgb(0,0,0)" fill-opacity="1.0" font-size="10" stroke="none">
PLANO_JAVA_COD_PLANO
</text>
<text x="182" y="60" fill="rgb(0,128,0)" fill-opacity="1.0" font-size="10" stroke="none">
NUMBER
</text>
<line x1="0" y1="66" x2="365" y2="66" fill="none" stroke="rgb(0,0,255)"/>
<use xlink:href="#pk_sym" x="4" y="73" width="8" height="8" fill-opacity="1.0"/>
<text x="16" y="80" fill="rgb(0,0,0)" fill-opacity="1.0" font-size="10" stroke="none">
TIPO_PLANO_JAVA_PK (COD_TIPO_PLANO)
</text>
<line x1="0" y1="86" x2="365" y2="86" fill="none" stroke="rgb(0,0,255)"/>
<use xlink:href="#fk_sym" x="4" y="93" width="8" height="8" fill-opacity="1.0"/><a xlink:href="#03E8BDC5-DD3999C4CDE5" >
<text x="16" y="100" fill="rgb(0,0,0)" fill-opacity="1.0" font-size="10" stroke="none">
TIPO_PLANO_JAVA_PLANO_JAVA_FK (PLANO_JAVA_COD_PLANO)
</text></a>
<line x1="0" y1="106" x2="365" y2="106" fill="none" stroke="rgb(0,0,255)"/>
<text x="2" y="120" fill="rgb(0,0,0)" fill-opacity="1.0" font-size="10" stroke="none">
U
</text>
<text x="16" y="120" fill="rgb(0,0,0)" fill-opacity="1.0" font-size="10" stroke="none">
TIPO_PLANO_JAVA__IDX (PLANO_JAVA_COD_PLANO)
</text>
</g>
<g  fill="rgb(255,255,180)" stroke="rgb(0,0,255)" fill-opacity="1.0" stroke-opacity="1.0" clip-path="url(#clipPath6_0_)" transform="translate(1178,37)" >
<rect x="0" y="0" width="233" height="122" />
<text id="9B7AF73C-64C82F464DFF" x="76" y="14" fill="rgb(0,0,255)" font-weight="bold"  fill-opacity="1.0" font-size="10" stroke="none">
PRODUTO_JAVA
</text>
<line x1="0" y1="18" x2="232" y2="18" fill="none" stroke="rgb(0,0,255)"/>
<text x="16" y="32" fill="rgb(255,0,0)" fill-opacity="1.0" font-size="10" stroke="none">
*
</text>
<text x="2" y="32" fill="rgb(0,0,255)" fill-opacity="1.0" font-size="10" stroke="none">
P
</text>
<text x="26" y="32" fill="rgb(0,0,0)" fill-opacity="1.0" font-size="10" stroke="none">
COD_PRODUTO
</text>
<text x="125" y="32" fill="rgb(0,128,0)" fill-opacity="1.0" font-size="10" stroke="none">
NUMBER
</text>
<text x="16" y="46" fill="rgb(255,0,0)" fill-opacity="1.0" font-size="10" stroke="none">

</text>
<text x="26" y="46" fill="rgb(0,0,0)" fill-opacity="1.0" font-size="10" stroke="none">
NOME
</text>
<text x="125" y="46" fill="rgb(0,128,0)" fill-opacity="1.0" font-size="10" stroke="none">
VARCHAR2 (60)
</text>
<text x="16" y="60" fill="rgb(255,0,0)" fill-opacity="1.0" font-size="10" stroke="none">

</text>
<text x="26" y="60" fill="rgb(0,0,0)" fill-opacity="1.0" font-size="10" stroke="none">
DESCRICAO
</text>
<text x="125" y="60" fill="rgb(0,128,0)" fill-opacity="1.0" font-size="10" stroke="none">
VARCHAR2 (150)
</text>
<line x1="0" y1="66" x2="232" y2="66" fill="none" stroke="rgb(0,0,255)"/>
<use xlink:href="#pk_sym" x="4" y="73" width="8" height="8" fill-opacity="1.0"/>
<text x="16" y="80" fill="rgb(0,0,0)" fill-opacity="1.0" font-size="10" stroke="none">
PRODUTO_JAVA_PK (COD_PRODUTO)
</text>
</g>
<g  fill="rgb(255,255,180)" stroke="rgb(0,0,255)" fill-opacity="1.0" stroke-opacity="1.0" clip-path="url(#clipPath1_0_)" transform="translate(50,455)" >
<rect x="0" y="0" width="343" height="139" />
<text id="BDFDD054-F775F7D8BCA8" x="153" y="14" fill="rgb(0,0,255)" font-weight="bold"  fill-opacity="1.0" font-size="10" stroke="none">
CARGO
</text>
<line x1="0" y1="18" x2="342" y2="18" fill="none" stroke="rgb(0,0,255)"/>
<text x="16" y="32" fill="rgb(255,0,0)" fill-opacity="1.0" font-size="10" stroke="none">
*
</text>
<text x="2" y="32" fill="rgb(0,0,255)" fill-opacity="1.0" font-size="10" stroke="none">
P
</text>
<text x="26" y="32" fill="rgb(0,0,0)" fill-opacity="1.0" font-size="10" stroke="none">
COD_CARGO
</text>
<text x="204" y="32" fill="rgb(0,128,0)" fill-opacity="1.0" font-size="10" stroke="none">
NUMBER
</text>
<text x="16" y="46" fill="rgb(255,0,0)" fill-opacity="1.0" font-size="10" stroke="none">

</text>
<text x="26" y="46" fill="rgb(0,0,0)" fill-opacity="1.0" font-size="10" stroke="none">
NOME
</text>
<text x="204" y="46" fill="rgb(0,128,0)" fill-opacity="1.0" font-size="10" stroke="none">
VARCHAR2 (40)
</text>
<text x="16" y="60" fill="rgb(255,0,0)" fill-opacity="1.0" font-size="10" stroke="none">
*
</text>
<text x="2" y="60" fill="rgb(0,0,0)" fill-opacity="1.0" font-size="10" stroke="none">
F
</text>
<text x="26" y="60" fill="rgb(0,0,0)" fill-opacity="1.0" font-size="10" stroke="none">
USUARIO_JAVA_COD_USUARIO
</text>
<text x="204" y="60" fill="rgb(0,128,0)" fill-opacity="1.0" font-size="10" stroke="none">
NUMBER
</text>
<line x1="0" y1="66" x2="342" y2="66" fill="none" stroke="rgb(0,0,255)"/>
<use xlink:href="#pk_sym" x="4" y="73" width="8" height="8" fill-opacity="1.0"/>
<text x="16" y="80" fill="rgb(0,0,0)" fill-opacity="1.0" font-size="10" stroke="none">
CARGO_PK (COD_CARGO)
</text>
<line x1="0" y1="86" x2="342" y2="86" fill="none" stroke="rgb(0,0,255)"/>
<use xlink:href="#fk_sym" x="4" y="93" width="8" height="8" fill-opacity="1.0"/><a xlink:href="#212AA4E7-4A185840281D" >
<text x="16" y="100" fill="rgb(0,0,0)" fill-opacity="1.0" font-size="10" stroke="none">
CARGO_USUARIO_JAVA_FK (USUARIO_JAVA_COD_USUARIO)
</text></a>
<line x1="0" y1="106" x2="342" y2="106" fill="none" stroke="rgb(0,0,255)"/>
<text x="2" y="120" fill="rgb(0,0,0)" fill-opacity="1.0" font-size="10" stroke="none">
U
</text>
<text x="16" y="120" fill="rgb(0,0,0)" fill-opacity="1.0" font-size="10" stroke="none">
CARGO__IDX (USUARIO_JAVA_COD_USUARIO)
</text>
</g>
<g  fill="rgb(255,255,180)" stroke="rgb(0,0,255)" fill-opacity="1.0" stroke-opacity="1.0" clip-path="url(#clipPath3_0_)" transform="translate(1014,310)" >
<rect x="0" y="0" width="438" height="181" />
<text id="CCC3500B-717CAFD1F4A5" x="165" y="14" fill="rgb(0,0,255)" font-weight="bold"  fill-opacity="1.0" font-size="10" stroke="none">
ITEM_COMPRA_JAVA
</text>
<line x1="0" y1="18" x2="437" y2="18" fill="none" stroke="rgb(0,0,255)"/>
<text x="16" y="32" fill="rgb(255,0,0)" fill-opacity="1.0" font-size="10" stroke="none">
*
</text>
<text x="26" y="32" fill="rgb(0,0,0)" fill-opacity="1.0" font-size="10" stroke="none">
COD_PRODUTO
</text>
<text x="200" y="32" fill="rgb(0,128,0)" fill-opacity="1.0" font-size="10" stroke="none">
NUMBER
</text>
<text x="16" y="46" fill="rgb(255,0,0)" fill-opacity="1.0" font-size="10" stroke="none">

</text>
<text x="26" y="46" fill="rgb(0,0,0)" fill-opacity="1.0" font-size="10" stroke="none">
COD_CLIENTE
</text>
<text x="200" y="46" fill="rgb(0,128,0)" fill-opacity="1.0" font-size="10" stroke="none">
NUMBER
</text>
<text x="16" y="60" fill="rgb(255,0,0)" fill-opacity="1.0" font-size="10" stroke="none">

</text>
<text x="26" y="60" fill="rgb(0,0,0)" fill-opacity="1.0" font-size="10" stroke="none">
PRECO
</text>
<text x="200" y="60" fill="rgb(0,128,0)" fill-opacity="1.0" font-size="10" stroke="none">
NUMBER (9,2)
</text>
<text x="16" y="74" fill="rgb(255,0,0)" fill-opacity="1.0" font-size="10" stroke="none">
*
</text>
<text x="2" y="74" fill="rgb(0,0,0)" fill-opacity="1.0" font-size="10" stroke="none">
F
</text>
<text x="26" y="74" fill="rgb(0,0,0)" fill-opacity="1.0" font-size="10" stroke="none">
CLIENTE_JAVA_COD_CLIENTE
</text>
<text x="200" y="74" fill="rgb(0,128,0)" fill-opacity="1.0" font-size="10" stroke="none">
NUMBER
</text>
<text x="16" y="88" fill="rgb(255,0,0)" fill-opacity="1.0" font-size="10" stroke="none">
*
</text>
<text x="2" y="88" fill="rgb(0,0,0)" fill-opacity="1.0" font-size="10" stroke="none">
F
</text>
<text x="26" y="88" fill="rgb(0,0,0)" fill-opacity="1.0" font-size="10" stroke="none">
PRODUTO_JAVA_COD_PRODUTO
</text>
<text x="200" y="88" fill="rgb(0,128,0)" fill-opacity="1.0" font-size="10" stroke="none">
NUMBER
</text>
<line x1="0" y1="94" x2="437" y2="94" fill="none" stroke="rgb(0,0,255)"/>
<use xlink:href="#pk_sym" x="4" y="101" width="8" height="8" fill-opacity="1.0"/>
<text x="16" y="108" fill="rgb(0,0,0)" fill-opacity="1.0" font-size="10" stroke="none">
ITEM_COMPRA_JAVA_PK ()
</text>
<line x1="0" y1="114" x2="437" y2="114" fill="none" stroke="rgb(0,0,255)"/>
<use xlink:href="#fk_sym" x="4" y="121" width="8" height="8" fill-opacity="1.0"/><a xlink:href="#DC04C04F-4F7A7D25D42F" >
<text x="16" y="128" fill="rgb(0,0,0)" fill-opacity="1.0" font-size="10" stroke="none">
ITEM_COMPRA_JAVA_CLIENTE_JAVA_FK (CLIENTE_JAVA_COD_CLIENTE)
</text></a>
<use xlink:href="#fk_sym" x="4" y="135" width="8" height="8" fill-opacity="1.0"/><a xlink:href="#9B7AF73C-64C82F464DFF" >
<text x="16" y="142" fill="rgb(0,0,0)" fill-opacity="1.0" font-size="10" stroke="none">
ITEM_COMPRA_JAVA_PRODUTO_JAVA_FK (PRODUTO_JAVA_COD_PRODUTO)
</text></a>
<line x1="0" y1="148" x2="437" y2="148" fill="none" stroke="rgb(0,0,255)"/>
<text x="2" y="162" fill="rgb(0,0,0)" fill-opacity="1.0" font-size="10" stroke="none">
U
</text>
<text x="16" y="162" fill="rgb(0,0,0)" fill-opacity="1.0" font-size="10" stroke="none">
ITEM_COMPRA_JAVA__IDX (PRODUTO_JAVA_COD_PRODUTO)
</text>
</g>
<g  fill="rgb(255,255,180)" stroke="rgb(0,0,255)" fill-opacity="1.0" stroke-opacity="1.0" clip-path="url(#clipPath4_0_)" transform="translate(59,26)" >
<rect x="0" y="0" width="205" height="90" />
<text id="D858F72D-A52CE14E8098" x="68" y="14" fill="rgb(0,0,255)" font-weight="bold"  fill-opacity="1.0" font-size="10" stroke="none">
PERFIL_JAVA
</text>
<line x1="0" y1="18" x2="204" y2="18" fill="none" stroke="rgb(0,0,255)"/>
<text x="16" y="32" fill="rgb(255,0,0)" fill-opacity="1.0" font-size="10" stroke="none">
*
</text>
<text x="2" y="32" fill="rgb(0,0,255)" fill-opacity="1.0" font-size="10" stroke="none">
P
</text>
<text x="26" y="32" fill="rgb(0,0,0)" fill-opacity="1.0" font-size="10" stroke="none">
COD_PERFIL
</text>
<text x="110" y="32" fill="rgb(0,128,0)" fill-opacity="1.0" font-size="10" stroke="none">
NUMBER
</text>
<text x="16" y="46" fill="rgb(255,0,0)" fill-opacity="1.0" font-size="10" stroke="none">

</text>
<text x="26" y="46" fill="rgb(0,0,0)" fill-opacity="1.0" font-size="10" stroke="none">
TIPO
</text>
<text x="110" y="46" fill="rgb(0,128,0)" fill-opacity="1.0" font-size="10" stroke="none">
VARCHAR2 (30)
</text>
<line x1="0" y1="52" x2="204" y2="52" fill="none" stroke="rgb(0,0,255)"/>
<use xlink:href="#pk_sym" x="4" y="59" width="8" height="8" fill-opacity="1.0"/>
<text x="16" y="66" fill="rgb(0,0,0)" fill-opacity="1.0" font-size="10" stroke="none">
PERFIL_JAVA_PK (COD_PERFIL)
</text>
</g>
<g  fill="rgb(255,255,180)" stroke="rgb(0,0,255)" fill-opacity="1.0" stroke-opacity="1.0" clip-path="url(#clipPath2_0_)" transform="translate(475,258)" >
<rect x="0" y="0" width="377" height="174" />
<text id="DC04C04F-4F7A7D25D42F" x="151" y="14" fill="rgb(0,0,255)" font-weight="bold"  fill-opacity="1.0" font-size="10" stroke="none">
CLIENTE_JAVA
</text>
<line x1="0" y1="18" x2="376" y2="18" fill="none" stroke="rgb(0,0,255)"/>
<text x="16" y="32" fill="rgb(255,0,0)" fill-opacity="1.0" font-size="10" stroke="none">
*
</text>
<text x="2" y="32" fill="rgb(0,0,255)" fill-opacity="1.0" font-size="10" stroke="none">
P
</text>
<text x="26" y="32" fill="rgb(0,0,0)" fill-opacity="1.0" font-size="10" stroke="none">
COD_CLIENTE
</text>
<text x="204" y="32" fill="rgb(0,128,0)" fill-opacity="1.0" font-size="10" stroke="none">
NUMBER
</text>
<text x="16" y="46" fill="rgb(255,0,0)" fill-opacity="1.0" font-size="10" stroke="none">
*
</text>
<text x="26" y="46" fill="rgb(0,0,0)" fill-opacity="1.0" font-size="10" stroke="none">
NOME_EMPRESA
</text>
<text x="204" y="46" fill="rgb(0,128,0)" fill-opacity="1.0" font-size="10" stroke="none">
VARCHAR2 (70)
</text>
<text x="16" y="60" fill="rgb(255,0,0)" fill-opacity="1.0" font-size="10" stroke="none">

</text>
<text x="26" y="60" fill="rgb(0,0,0)" fill-opacity="1.0" font-size="10" stroke="none">
CNPJ
</text>
<text x="204" y="60" fill="rgb(0,128,0)" fill-opacity="1.0" font-size="10" stroke="none">
NUMBER (14)
</text>
<text x="16" y="74" fill="rgb(255,0,0)" fill-opacity="1.0" font-size="10" stroke="none">

</text>
<text x="26" y="74" fill="rgb(0,0,0)" fill-opacity="1.0" font-size="10" stroke="none">
SEGMENTO
</text>
<text x="204" y="74" fill="rgb(0,128,0)" fill-opacity="1.0" font-size="10" stroke="none">
VARCHAR2 (70)
</text>
<text x="16" y="88" fill="rgb(255,0,0)" fill-opacity="1.0" font-size="10" stroke="none">

</text>
<text x="26" y="88" fill="rgb(0,0,0)" fill-opacity="1.0" font-size="10" stroke="none">
TAMANHO_EMPRESA
</text>
<text x="204" y="88" fill="rgb(0,128,0)" fill-opacity="1.0" font-size="10" stroke="none">
VARCHAR2 (10)
</text>
<text x="16" y="102" fill="rgb(255,0,0)" fill-opacity="1.0" font-size="10" stroke="none">

</text>
<text x="26" y="102" fill="rgb(0,0,0)" fill-opacity="1.0" font-size="10" stroke="none">
PAIS
</text>
<text x="204" y="102" fill="rgb(0,128,0)" fill-opacity="1.0" font-size="10" stroke="none">
VARCHAR2 (40)
</text>
<text x="16" y="116" fill="rgb(255,0,0)" fill-opacity="1.0" font-size="10" stroke="none">
*
</text>
<text x="2" y="116" fill="rgb(0,0,0)" fill-opacity="1.0" font-size="10" stroke="none">
F
</text>
<text x="26" y="116" fill="rgb(0,0,0)" fill-opacity="1.0" font-size="10" stroke="none">
USUARIO_JAVA_COD_USUARIO
</text>
<text x="204" y="116" fill="rgb(0,128,0)" fill-opacity="1.0" font-size="10" stroke="none">
NUMBER
</text>
<line x1="0" y1="122" x2="376" y2="122" fill="none" stroke="rgb(0,0,255)"/>
<use xlink:href="#pk_sym" x="4" y="129" width="8" height="8" fill-opacity="1.0"/>
<text x="16" y="136" fill="rgb(0,0,0)" fill-opacity="1.0" font-size="10" stroke="none">
CLIENTE_JAVA_PK (COD_CLIENTE)
</text>
<line x1="0" y1="142" x2="376" y2="142" fill="none" stroke="rgb(0,0,255)"/>
<use xlink:href="#fk_sym" x="4" y="149" width="8" height="8" fill-opacity="1.0"/><a xlink:href="#212AA4E7-4A185840281D" >
<text x="16" y="156" fill="rgb(0,0,0)" fill-opacity="1.0" font-size="10" stroke="none">
CLIENTE_JAVA_USUARIO_JAVA_FK (USUARIO_JAVA_COD_USUARIO)
</text></a>
</g>

</svg>